<?xml version="1.0" standalone="no"?>
<!DOCTYPE svg PUBLIC "-//W3C//DTD SVG 20010904//EN"
 "http://www.w3.org/TR/2001/REC-SVG-20010904/DTD/svg10.dtd">
<svg version="1.0" xmlns="http://www.w3.org/2000/svg"
 width="500.000000pt" height="500.000000pt" viewBox="0 0 500.000000 500.000000"
 preserveAspectRatio="xMidYMid meet">
<metadata>
Created by potrace 1.11, written by Peter Selinger 2001-2013
</metadata>
<g transform="translate(0.000000,500.000000) scale(0.100000,-0.100000)"
fill="#000000" stroke="none">
<path d="M640 2500 l0 -1930 360 0 360 0 2 1517 3 1518 83 -335 c46 -184 214
-857 373 -1495 159 -638 291 -1170 294 -1182 l5 -23 378 0 378 0 11 48 c16 68
51 208 68 272 14 53 202 804 250 1000 114 463 419 1679 425 1695 5 11 9 -663
9 -1497 l1 -1518 360 0 360 0 0 1930 0 1930 -588 0 -588 0 -11 -47 c-6 -27
-42 -169 -81 -318 -39 -148 -99 -382 -135 -520 -36 -137 -95 -365 -132 -505
-36 -140 -89 -343 -117 -450 -27 -107 -69 -271 -94 -365 -24 -93 -58 -225 -76
-293 -17 -67 -33 -120 -37 -117 -3 3 -24 79 -47 168 -37 145 -76 294 -172 657
-17 63 -45 169 -62 235 -17 66 -49 188 -71 270 -51 191 -159 602 -214 815 -54
206 -92 350 -111 418 l-15 52 -584 0 -585 0 0 -1930z"/>
</g>
</svg>
