<?xml version="1.0" standalone="no"?>
<!DOCTYPE svg PUBLIC "-//W3C//DTD SVG 20010904//EN"
 "http://www.w3.org/TR/2001/REC-SVG-20010904/DTD/svg10.dtd">
<svg version="1.0" xmlns="http://www.w3.org/2000/svg"
 width="256.000000pt" height="256.000000pt" viewBox="0 0 256.000000 256.000000"
 preserveAspectRatio="xMidYMid meet">
<metadata>
Created by potrace 1.11, written by Peter Selinger 2001-2013
</metadata>
<g transform="translate(0.000000,256.000000) scale(0.100000,-0.100000)"
fill="#000000" stroke="none">
<path d="M250 2205 l0 -105 40 0 40 0 0 60 0 59 63 3 62 3 3 43 3 42 -105 0
-106 0 0 -105z"/>
<path d="M572 2268 l3 -43 130 0 130 0 3 43 3 42 -136 0 -136 0 3 -42z"/>
<path d="M952 2268 l3 -43 130 0 130 0 3 43 3 42 -136 0 -136 0 3 -42z"/>
<path d="M1340 2265 l0 -45 130 0 130 0 0 45 0 45 -130 0 -130 0 0 -45z"/>
<path d="M1720 2265 l0 -45 130 0 130 0 0 45 0 45 -130 0 -130 0 0 -45z"/>
<path d="M2102 2268 l3 -43 60 -5 60 -5 0 -55 0 -55 43 -3 42 -3 0 105 0 106
-106 0 -105 0 3 -42z"/>
<path d="M250 1850 l0 -130 40 0 40 0 0 130 0 130 -40 0 -40 0 0 -130z"/>
<path d="M2222 1853 l3 -128 43 -3 42 -3 0 130 0 131 -45 0 -46 0 3 -127z"/>
<path d="M717 1894 c-7 -8 -10 -1137 -3 -1145 2 -2 38 -3 80 -1 l76 4 2 431 3
432 168 -422 169 -423 63 0 c37 0 67 5 71 11 4 6 80 194 170 418 l163 406 1
-426 c0 -234 2 -428 4 -430 2 -2 38 -3 80 -1 l76 4 -2 571 -3 572 -89 0 -88 0
-187 -467 c-102 -257 -188 -468 -191 -468 -3 0 -89 210 -191 468 l-185 467
-90 3 c-50 1 -93 0 -97 -4z"/>
<path d="M250 1470 l0 -130 40 0 40 0 0 130 0 130 -40 0 -40 0 0 -130z"/>
<path d="M2224 1587 c-2 -7 -3 -65 -2 -128 l3 -114 43 -3 42 -3 0 130 0 131
-40 0 c-24 0 -43 -5 -46 -13z"/>
<path d="M250 1090 l0 -130 40 0 40 0 0 130 0 130 -40 0 -40 0 0 -130z"/>
<path d="M2227 1213 c-4 -3 -7 -62 -7 -130 l0 -123 45 0 45 0 0 130 0 130 -38
0 c-21 0 -42 -3 -45 -7z"/>
<path d="M250 705 l0 -135 40 0 40 0 0 135 0 135 -40 0 -40 0 0 -135z"/>
<path d="M2224 827 c-2 -7 -3 -67 -2 -133 l3 -119 43 -3 42 -3 0 135 0 136
-40 0 c-24 0 -43 -5 -46 -13z"/>
<path d="M250 345 l0 -106 103 3 102 3 3 43 3 42 -65 0 -66 0 0 60 0 60 -40 0
-40 0 0 -105z"/>
<path d="M2220 390 l0 -60 -61 0 -60 0 3 -42 3 -43 100 0 100 0 3 103 3 102
-46 0 -45 0 0 -60z"/>
<path d="M572 288 l3 -43 130 0 130 0 3 43 3 42 -136 0 -136 0 3 -42z"/>
<path d="M952 288 l3 -43 130 0 130 0 3 43 3 42 -136 0 -136 0 3 -42z"/>
<path d="M1340 285 l0 -46 128 3 127 3 3 43 3 42 -130 0 -131 0 0 -45z"/>
<path d="M1722 288 l3 -43 128 -3 127 -3 0 46 0 45 -131 0 -130 0 3 -42z"/>
</g>
</svg>
